<mxfile host="app.diagrams.net" modified="2021-07-20T17:27:51.000Z" agent="5.0 (X11)" etag="Ml1lv0sTJXQlHRowBmtw" version="14.9.0" type="github" pages="2">
  <diagram id="VlTf07lFDyA_yYvmMkcF" name="Page-1">
    <mxGraphModel dx="1588" dy="880" grid="1" gridSize="10" guides="1" tooltips="1" connect="1" arrows="1" fold="1" page="1" pageScale="1" pageWidth="850" pageHeight="1100" math="0" shadow="0">
      <root>
        <mxCell id="0" />
        <mxCell id="1" parent="0" />
        <mxCell id="n2rtLvzGuDE1svgdu1uu-47" style="edgeStyle=orthogonalEdgeStyle;rounded=0;orthogonalLoop=1;jettySize=auto;html=1;" edge="1" parent="1" source="RYVmkAoyGklE7ptQfgUE-4">
          <mxGeometry relative="1" as="geometry">
            <mxPoint x="420" y="250" as="targetPoint" />
          </mxGeometry>
        </mxCell>
        <mxCell id="RYVmkAoyGklE7ptQfgUE-4" value="" style="rounded=1;whiteSpace=wrap;html=1;fillColor=#f9f7ed;strokeColor=#36393d;" vertex="1" parent="1">
          <mxGeometry x="80" y="100" width="220" height="320" as="geometry" />
        </mxCell>
        <mxCell id="RYVmkAoyGklE7ptQfgUE-7" value="LOGIN SCREEN" style="text;html=1;align=center;verticalAlign=middle;resizable=0;points=[];autosize=1;strokeColor=#6c8ebf;fillColor=#dae8fc;" vertex="1" parent="1">
          <mxGeometry x="135" y="120" width="110" height="20" as="geometry" />
        </mxCell>
        <mxCell id="RYVmkAoyGklE7ptQfgUE-9" value="LOGO" style="rhombus;whiteSpace=wrap;html=1;gradientColor=#d5739d;fillColor=#e6d0de;strokeColor=#996185;" vertex="1" parent="1">
          <mxGeometry x="147.5" y="150" width="55" height="60" as="geometry" />
        </mxCell>
        <mxCell id="RYVmkAoyGklE7ptQfgUE-10" value="USERNAME" style="whiteSpace=wrap;html=1;gradientColor=#7ea6e0;fillColor=#dae8fc;strokeColor=#6c8ebf;" vertex="1" parent="1">
          <mxGeometry x="135" y="220" width="110" height="50" as="geometry" />
        </mxCell>
        <mxCell id="RYVmkAoyGklE7ptQfgUE-11" value="PASSWORD" style="rounded=0;whiteSpace=wrap;html=1;gradientColor=#ffd966;fillColor=#fff2cc;strokeColor=#d6b656;" vertex="1" parent="1">
          <mxGeometry x="135" y="300" width="120" height="60" as="geometry" />
        </mxCell>
        <mxCell id="RYVmkAoyGklE7ptQfgUE-12" value="Forgot password" style="text;html=1;strokeColor=none;fillColor=none;align=center;verticalAlign=middle;whiteSpace=wrap;rounded=0;" vertex="1" parent="1">
          <mxGeometry x="160" y="370" width="40" height="20" as="geometry" />
        </mxCell>
        <mxCell id="RYVmkAoyGklE7ptQfgUE-13" value="" style="rounded=1;whiteSpace=wrap;html=1;" vertex="1" parent="1">
          <mxGeometry x="360" y="110" width="10" as="geometry" />
        </mxCell>
        <mxCell id="RYVmkAoyGklE7ptQfgUE-14" value="" style="rounded=1;whiteSpace=wrap;html=1;" vertex="1" parent="1">
          <mxGeometry x="370" y="120" width="10" as="geometry" />
        </mxCell>
        <mxCell id="RYVmkAoyGklE7ptQfgUE-15" value="" style="rounded=1;whiteSpace=wrap;html=1;fillColor=#f9f7ed;strokeColor=#36393d;" vertex="1" parent="1">
          <mxGeometry x="435" y="100" width="220" height="320" as="geometry" />
        </mxCell>
        <mxCell id="n2rtLvzGuDE1svgdu1uu-48" style="edgeStyle=orthogonalEdgeStyle;rounded=0;orthogonalLoop=1;jettySize=auto;html=1;" edge="1" parent="1" source="n2rtLvzGuDE1svgdu1uu-3">
          <mxGeometry relative="1" as="geometry">
            <mxPoint x="750" y="140" as="targetPoint" />
          </mxGeometry>
        </mxCell>
        <mxCell id="n2rtLvzGuDE1svgdu1uu-3" value="Programs and categories" style="rounded=1;whiteSpace=wrap;html=1;fillColor=#dae8fc;strokeColor=#6c8ebf;" vertex="1" parent="1">
          <mxGeometry x="500" y="110" width="90" height="40" as="geometry" />
        </mxCell>
        <mxCell id="n2rtLvzGuDE1svgdu1uu-49" style="edgeStyle=orthogonalEdgeStyle;rounded=0;orthogonalLoop=1;jettySize=auto;html=1;" edge="1" parent="1" source="n2rtLvzGuDE1svgdu1uu-4">
          <mxGeometry relative="1" as="geometry">
            <mxPoint x="320" y="550" as="targetPoint" />
          </mxGeometry>
        </mxCell>
        <mxCell id="n2rtLvzGuDE1svgdu1uu-4" value="Products and resources" style="rounded=1;whiteSpace=wrap;html=1;fillColor=#d5e8d4;strokeColor=#82b366;" vertex="1" parent="1">
          <mxGeometry x="500" y="170" width="90" height="40" as="geometry" />
        </mxCell>
        <mxCell id="n2rtLvzGuDE1svgdu1uu-67" style="edgeStyle=orthogonalEdgeStyle;rounded=0;orthogonalLoop=1;jettySize=auto;html=1;" edge="1" parent="1" source="n2rtLvzGuDE1svgdu1uu-5">
          <mxGeometry relative="1" as="geometry">
            <mxPoint x="710" y="920" as="targetPoint" />
          </mxGeometry>
        </mxCell>
        <mxCell id="n2rtLvzGuDE1svgdu1uu-5" value="Careers" style="rounded=1;whiteSpace=wrap;html=1;fillColor=#ffe6cc;strokeColor=#d79b00;" vertex="1" parent="1">
          <mxGeometry x="500" y="230" width="90" height="30" as="geometry" />
        </mxCell>
        <mxCell id="n2rtLvzGuDE1svgdu1uu-108" style="edgeStyle=orthogonalEdgeStyle;rounded=0;orthogonalLoop=1;jettySize=auto;html=1;" edge="1" parent="1" source="n2rtLvzGuDE1svgdu1uu-6">
          <mxGeometry relative="1" as="geometry">
            <mxPoint x="1010" y="550" as="targetPoint" />
            <Array as="points">
              <mxPoint x="990" y="285" />
              <mxPoint x="990" y="480" />
            </Array>
          </mxGeometry>
        </mxCell>
        <mxCell id="n2rtLvzGuDE1svgdu1uu-6" value="Knowledge tools" style="rounded=1;whiteSpace=wrap;html=1;fillColor=#f8cecc;strokeColor=#b85450;" vertex="1" parent="1">
          <mxGeometry x="500" y="270" width="90" height="30" as="geometry" />
        </mxCell>
        <mxCell id="n2rtLvzGuDE1svgdu1uu-8" value="About LMS and overview" style="text;html=1;align=center;verticalAlign=middle;resizable=0;points=[];autosize=1;strokeColor=#6c8ebf;fillColor=#dae8fc;" vertex="1" parent="1">
          <mxGeometry x="465" y="330" width="150" height="20" as="geometry" />
        </mxCell>
        <mxCell id="n2rtLvzGuDE1svgdu1uu-10" value="" style="rounded=1;whiteSpace=wrap;html=1;fillColor=#f9f7ed;strokeColor=#36393d;" vertex="1" parent="1">
          <mxGeometry x="760" y="100" width="220" height="320" as="geometry" />
        </mxCell>
        <mxCell id="n2rtLvzGuDE1svgdu1uu-11" value="&lt;u&gt;Listed categories&lt;/u&gt;" style="text;html=1;align=center;verticalAlign=middle;resizable=0;points=[];autosize=1;strokeColor=none;" vertex="1" parent="1">
          <mxGeometry x="790" y="140" width="110" height="20" as="geometry" />
        </mxCell>
        <mxCell id="n2rtLvzGuDE1svgdu1uu-23" style="edgeStyle=orthogonalEdgeStyle;rounded=0;orthogonalLoop=1;jettySize=auto;html=1;" edge="1" parent="1" source="n2rtLvzGuDE1svgdu1uu-12">
          <mxGeometry relative="1" as="geometry">
            <mxPoint x="1080" y="190" as="targetPoint" />
          </mxGeometry>
        </mxCell>
        <mxCell id="n2rtLvzGuDE1svgdu1uu-12" value="Design" style="text;html=1;align=center;verticalAlign=middle;resizable=0;points=[];autosize=1;strokeColor=none;" vertex="1" parent="1">
          <mxGeometry x="810" y="170" width="50" height="20" as="geometry" />
        </mxCell>
        <mxCell id="n2rtLvzGuDE1svgdu1uu-14" value="It and software" style="text;html=1;align=center;verticalAlign=middle;resizable=0;points=[];autosize=1;strokeColor=none;" vertex="1" parent="1">
          <mxGeometry x="810" y="200" width="90" height="20" as="geometry" />
        </mxCell>
        <mxCell id="n2rtLvzGuDE1svgdu1uu-15" value="Marketing" style="text;html=1;align=center;verticalAlign=middle;resizable=0;points=[];autosize=1;strokeColor=none;" vertex="1" parent="1">
          <mxGeometry x="805" y="290" width="70" height="20" as="geometry" />
        </mxCell>
        <mxCell id="n2rtLvzGuDE1svgdu1uu-16" value="Development" style="text;html=1;align=center;verticalAlign=middle;resizable=0;points=[];autosize=1;strokeColor=none;" vertex="1" parent="1">
          <mxGeometry x="805" y="260" width="90" height="20" as="geometry" />
        </mxCell>
        <mxCell id="n2rtLvzGuDE1svgdu1uu-17" value="Buisiness" style="text;html=1;align=center;verticalAlign=middle;resizable=0;points=[];autosize=1;strokeColor=none;" vertex="1" parent="1">
          <mxGeometry x="805" y="320" width="70" height="20" as="geometry" />
        </mxCell>
        <mxCell id="n2rtLvzGuDE1svgdu1uu-18" value="Photography" style="text;html=1;align=center;verticalAlign=middle;resizable=0;points=[];autosize=1;strokeColor=none;" vertex="1" parent="1">
          <mxGeometry x="810" y="230" width="80" height="20" as="geometry" />
        </mxCell>
        <mxCell id="n2rtLvzGuDE1svgdu1uu-21" value="Explore more topics" style="rounded=1;whiteSpace=wrap;html=1;fillColor=#dae8fc;strokeColor=#6c8ebf;" vertex="1" parent="1">
          <mxGeometry x="800" y="350" width="120" height="60" as="geometry" />
        </mxCell>
        <mxCell id="n2rtLvzGuDE1svgdu1uu-22" value="" style="rounded=1;whiteSpace=wrap;html=1;fillColor=#f9f7ed;strokeColor=#36393d;" vertex="1" parent="1">
          <mxGeometry x="1100" y="100" width="220" height="330" as="geometry" />
        </mxCell>
        <mxCell id="n2rtLvzGuDE1svgdu1uu-24" value="Design courses" style="rounded=1;whiteSpace=wrap;html=1;fillColor=#dae8fc;strokeColor=#6c8ebf;" vertex="1" parent="1">
          <mxGeometry x="1130" y="110" width="120" height="50" as="geometry" />
        </mxCell>
        <mxCell id="n2rtLvzGuDE1svgdu1uu-32" style="edgeStyle=orthogonalEdgeStyle;rounded=0;orthogonalLoop=1;jettySize=auto;html=1;" edge="1" parent="1" source="n2rtLvzGuDE1svgdu1uu-25" target="n2rtLvzGuDE1svgdu1uu-33">
          <mxGeometry relative="1" as="geometry">
            <mxPoint x="1360" y="190" as="targetPoint" />
          </mxGeometry>
        </mxCell>
        <mxCell id="n2rtLvzGuDE1svgdu1uu-25" value="Courses 1" style="rounded=1;whiteSpace=wrap;html=1;fillColor=#d5e8d4;strokeColor=#82b366;" vertex="1" parent="1">
          <mxGeometry x="1130" y="170" width="100" height="40" as="geometry" />
        </mxCell>
        <mxCell id="n2rtLvzGuDE1svgdu1uu-26" value="Course 2" style="rounded=1;whiteSpace=wrap;html=1;fillColor=#ffe6cc;strokeColor=#d79b00;" vertex="1" parent="1">
          <mxGeometry x="1130" y="225" width="100" height="40" as="geometry" />
        </mxCell>
        <mxCell id="n2rtLvzGuDE1svgdu1uu-27" value="Course 3" style="rounded=1;whiteSpace=wrap;html=1;fillColor=#fff2cc;strokeColor=#d6b656;" vertex="1" parent="1">
          <mxGeometry x="1130" y="280" width="100" height="40" as="geometry" />
        </mxCell>
        <mxCell id="n2rtLvzGuDE1svgdu1uu-28" value="Course 4" style="rounded=1;whiteSpace=wrap;html=1;fillColor=#e1d5e7;strokeColor=#9673a6;" vertex="1" parent="1">
          <mxGeometry x="1130" y="340" width="100" height="35" as="geometry" />
        </mxCell>
        <mxCell id="n2rtLvzGuDE1svgdu1uu-29" value="More courses" style="rounded=1;whiteSpace=wrap;html=1;fillColor=#f8cecc;strokeColor=#b85450;" vertex="1" parent="1">
          <mxGeometry x="1100" y="390" width="90" height="20" as="geometry" />
        </mxCell>
        <mxCell id="n2rtLvzGuDE1svgdu1uu-30" value="Featured courses" style="rounded=1;whiteSpace=wrap;html=1;fillColor=#f8cecc;strokeColor=#b85450;" vertex="1" parent="1">
          <mxGeometry x="1200" y="390" width="100" height="20" as="geometry" />
        </mxCell>
        <mxCell id="n2rtLvzGuDE1svgdu1uu-33" value="" style="rounded=1;whiteSpace=wrap;html=1;fillColor=#f9f7ed;strokeColor=#36393d;" vertex="1" parent="1">
          <mxGeometry x="1360" y="95" width="220" height="330" as="geometry" />
        </mxCell>
        <mxCell id="n2rtLvzGuDE1svgdu1uu-35" value="Syllabus" style="rounded=1;whiteSpace=wrap;html=1;fillColor=#dae8fc;strokeColor=#6c8ebf;" vertex="1" parent="1">
          <mxGeometry x="1400" y="110" width="120" height="20" as="geometry" />
        </mxCell>
        <mxCell id="n2rtLvzGuDE1svgdu1uu-36" value="Estimated time" style="rounded=1;whiteSpace=wrap;html=1;fillColor=#d5e8d4;strokeColor=#82b366;" vertex="1" parent="1">
          <mxGeometry x="1400" y="140" width="120" height="30" as="geometry" />
        </mxCell>
        <mxCell id="n2rtLvzGuDE1svgdu1uu-37" value="Prerequisites" style="rounded=1;whiteSpace=wrap;html=1;fillColor=#ffe6cc;strokeColor=#d79b00;" vertex="1" parent="1">
          <mxGeometry x="1400" y="180" width="120" height="30" as="geometry" />
        </mxCell>
        <mxCell id="n2rtLvzGuDE1svgdu1uu-38" value="Description" style="rounded=1;whiteSpace=wrap;html=1;fillColor=#fff2cc;strokeColor=#d6b656;" vertex="1" parent="1">
          <mxGeometry x="1400" y="225" width="120" height="80" as="geometry" />
        </mxCell>
        <mxCell id="n2rtLvzGuDE1svgdu1uu-39" value="Price" style="rounded=1;whiteSpace=wrap;html=1;fillColor=#f8cecc;strokeColor=#b85450;" vertex="1" parent="1">
          <mxGeometry x="1400" y="320" width="120" height="30" as="geometry" />
        </mxCell>
        <mxCell id="n2rtLvzGuDE1svgdu1uu-45" style="edgeStyle=orthogonalEdgeStyle;rounded=0;orthogonalLoop=1;jettySize=auto;html=1;" edge="1" parent="1" source="n2rtLvzGuDE1svgdu1uu-41">
          <mxGeometry relative="1" as="geometry">
            <mxPoint x="1650" y="385" as="targetPoint" />
          </mxGeometry>
        </mxCell>
        <mxCell id="n2rtLvzGuDE1svgdu1uu-41" value="Buy course" style="rounded=1;whiteSpace=wrap;html=1;fillColor=#dae8fc;strokeColor=#6c8ebf;" vertex="1" parent="1">
          <mxGeometry x="1470" y="370" width="100" height="30" as="geometry" />
        </mxCell>
        <mxCell id="n2rtLvzGuDE1svgdu1uu-43" style="edgeStyle=orthogonalEdgeStyle;rounded=0;orthogonalLoop=1;jettySize=auto;html=1;entryX=1.005;entryY=0.918;entryDx=0;entryDy=0;entryPerimeter=0;" edge="1" parent="1" source="n2rtLvzGuDE1svgdu1uu-42" target="n2rtLvzGuDE1svgdu1uu-22">
          <mxGeometry relative="1" as="geometry">
            <mxPoint x="1320" y="400" as="targetPoint" />
          </mxGeometry>
        </mxCell>
        <mxCell id="n2rtLvzGuDE1svgdu1uu-42" value="Suggestions" style="rounded=1;whiteSpace=wrap;html=1;fillColor=#dae8fc;strokeColor=#6c8ebf;" vertex="1" parent="1">
          <mxGeometry x="1370" y="370" width="90" height="30" as="geometry" />
        </mxCell>
        <mxCell id="n2rtLvzGuDE1svgdu1uu-44" value="&lt;font style=&quot;font-size: 10px&quot;&gt;Some more courses&lt;/font&gt;" style="text;html=1;align=center;verticalAlign=middle;resizable=0;points=[];autosize=1;strokeColor=none;" vertex="1" parent="1">
          <mxGeometry x="1270" y="440" width="110" height="20" as="geometry" />
        </mxCell>
        <mxCell id="n2rtLvzGuDE1svgdu1uu-46" value="" style="rounded=1;whiteSpace=wrap;html=1;fillColor=#f9f7ed;strokeColor=#36393d;" vertex="1" parent="1">
          <mxGeometry x="1650" y="100" width="220" height="330" as="geometry" />
        </mxCell>
        <mxCell id="n2rtLvzGuDE1svgdu1uu-50" value="" style="rounded=1;whiteSpace=wrap;html=1;fillColor=#f9f7ed;strokeColor=#36393d;" vertex="1" parent="1">
          <mxGeometry x="200" y="560" width="220" height="320" as="geometry" />
        </mxCell>
        <mxCell id="n2rtLvzGuDE1svgdu1uu-52" value="Courses" style="rounded=1;whiteSpace=wrap;html=1;fillColor=#eeeeee;strokeColor=#36393d;" vertex="1" parent="1">
          <mxGeometry x="240" y="570" width="110" height="30" as="geometry" />
        </mxCell>
        <mxCell id="n2rtLvzGuDE1svgdu1uu-57" style="edgeStyle=orthogonalEdgeStyle;rounded=0;orthogonalLoop=1;jettySize=auto;html=1;entryX=-0.023;entryY=0.291;entryDx=0;entryDy=0;entryPerimeter=0;" edge="1" parent="1" source="n2rtLvzGuDE1svgdu1uu-53" target="n2rtLvzGuDE1svgdu1uu-58">
          <mxGeometry relative="1" as="geometry">
            <mxPoint x="440" y="650" as="targetPoint" />
          </mxGeometry>
        </mxCell>
        <mxCell id="n2rtLvzGuDE1svgdu1uu-53" value="Course 1" style="rounded=1;whiteSpace=wrap;html=1;fillColor=#e51400;strokeColor=#B20000;fontColor=#ffffff;" vertex="1" parent="1">
          <mxGeometry x="240" y="630" width="110" height="30" as="geometry" />
        </mxCell>
        <mxCell id="n2rtLvzGuDE1svgdu1uu-62" style="edgeStyle=orthogonalEdgeStyle;rounded=0;orthogonalLoop=1;jettySize=auto;html=1;entryX=-0.005;entryY=0.403;entryDx=0;entryDy=0;entryPerimeter=0;" edge="1" parent="1" source="n2rtLvzGuDE1svgdu1uu-54" target="n2rtLvzGuDE1svgdu1uu-58">
          <mxGeometry relative="1" as="geometry">
            <mxPoint x="450" y="685" as="targetPoint" />
          </mxGeometry>
        </mxCell>
        <mxCell id="n2rtLvzGuDE1svgdu1uu-66" value="" style="edgeStyle=orthogonalEdgeStyle;rounded=0;orthogonalLoop=1;jettySize=auto;html=1;" edge="1" parent="1" source="n2rtLvzGuDE1svgdu1uu-54" target="n2rtLvzGuDE1svgdu1uu-56">
          <mxGeometry relative="1" as="geometry" />
        </mxCell>
        <mxCell id="n2rtLvzGuDE1svgdu1uu-54" value="Course 2" style="rounded=1;whiteSpace=wrap;html=1;fillColor=#fa6800;strokeColor=#C73500;fontColor=#000000;" vertex="1" parent="1">
          <mxGeometry x="240" y="690" width="110" height="30" as="geometry" />
        </mxCell>
        <mxCell id="n2rtLvzGuDE1svgdu1uu-63" style="edgeStyle=orthogonalEdgeStyle;rounded=0;orthogonalLoop=1;jettySize=auto;html=1;entryX=-0.009;entryY=0.538;entryDx=0;entryDy=0;entryPerimeter=0;" edge="1" parent="1" source="n2rtLvzGuDE1svgdu1uu-55" target="n2rtLvzGuDE1svgdu1uu-58">
          <mxGeometry relative="1" as="geometry">
            <mxPoint x="450" y="730" as="targetPoint" />
          </mxGeometry>
        </mxCell>
        <mxCell id="n2rtLvzGuDE1svgdu1uu-55" value="Course 3" style="rounded=1;whiteSpace=wrap;html=1;fillColor=#f0a30a;strokeColor=#BD7000;fontColor=#000000;" vertex="1" parent="1">
          <mxGeometry x="240" y="740" width="110" height="30" as="geometry" />
        </mxCell>
        <mxCell id="n2rtLvzGuDE1svgdu1uu-64" style="edgeStyle=orthogonalEdgeStyle;rounded=0;orthogonalLoop=1;jettySize=auto;html=1;entryX=-0.009;entryY=0.703;entryDx=0;entryDy=0;entryPerimeter=0;" edge="1" parent="1" source="n2rtLvzGuDE1svgdu1uu-56" target="n2rtLvzGuDE1svgdu1uu-58">
          <mxGeometry relative="1" as="geometry">
            <mxPoint x="450" y="780" as="targetPoint" />
          </mxGeometry>
        </mxCell>
        <mxCell id="n2rtLvzGuDE1svgdu1uu-56" value="Course 4" style="rounded=1;whiteSpace=wrap;html=1;fillColor=#e3c800;strokeColor=#B09500;fontColor=#000000;" vertex="1" parent="1">
          <mxGeometry x="240" y="790" width="110" height="30" as="geometry" />
        </mxCell>
        <mxCell id="n2rtLvzGuDE1svgdu1uu-58" value="" style="rounded=1;whiteSpace=wrap;html=1;fillColor=#f9f7ed;strokeColor=#36393d;" vertex="1" parent="1">
          <mxGeometry x="470" y="555" width="220" height="320" as="geometry" />
        </mxCell>
        <mxCell id="n2rtLvzGuDE1svgdu1uu-60" style="edgeStyle=orthogonalEdgeStyle;rounded=0;orthogonalLoop=1;jettySize=auto;html=1;" edge="1" parent="1" source="n2rtLvzGuDE1svgdu1uu-59">
          <mxGeometry relative="1" as="geometry">
            <mxPoint x="720" y="705" as="targetPoint" />
          </mxGeometry>
        </mxCell>
        <mxCell id="n2rtLvzGuDE1svgdu1uu-59" value="&lt;font style=&quot;font-size: 15px&quot;&gt;All resources related to the respective course&lt;/font&gt;" style="rounded=1;whiteSpace=wrap;html=1;fillColor=#dae8fc;strokeColor=#6c8ebf;" vertex="1" parent="1">
          <mxGeometry x="500" y="620" width="140" height="170" as="geometry" />
        </mxCell>
        <mxCell id="n2rtLvzGuDE1svgdu1uu-61" value="&lt;div&gt;Rerouting to the resource , it maybe a &lt;br&gt;&lt;/div&gt;&lt;div&gt;link or an article or &lt;br&gt;&lt;/div&gt;&lt;div&gt;any resource available in the internet&lt;/div&gt;" style="text;html=1;align=center;verticalAlign=middle;resizable=0;points=[];autosize=1;strokeColor=none;" vertex="1" parent="1">
          <mxGeometry x="710" y="690" width="220" height="50" as="geometry" />
        </mxCell>
        <mxCell id="n2rtLvzGuDE1svgdu1uu-75" value="" style="rounded=1;whiteSpace=wrap;html=1;fillColor=#f9f7ed;strokeColor=#36393d;" vertex="1" parent="1">
          <mxGeometry x="600" y="920" width="220" height="320" as="geometry" />
        </mxCell>
        <mxCell id="n2rtLvzGuDE1svgdu1uu-80" style="edgeStyle=orthogonalEdgeStyle;rounded=0;orthogonalLoop=1;jettySize=auto;html=1;" edge="1" parent="1" source="n2rtLvzGuDE1svgdu1uu-77">
          <mxGeometry relative="1" as="geometry">
            <mxPoint x="880" y="970" as="targetPoint" />
          </mxGeometry>
        </mxCell>
        <mxCell id="n2rtLvzGuDE1svgdu1uu-77" value="Success stories" style="rounded=1;whiteSpace=wrap;html=1;fillColor=#fad7ac;strokeColor=#b46504;" vertex="1" parent="1">
          <mxGeometry x="640" y="940" width="120" height="60" as="geometry" />
        </mxCell>
        <mxCell id="n2rtLvzGuDE1svgdu1uu-92" style="edgeStyle=orthogonalEdgeStyle;rounded=0;orthogonalLoop=1;jettySize=auto;html=1;" edge="1" parent="1" source="n2rtLvzGuDE1svgdu1uu-78">
          <mxGeometry relative="1" as="geometry">
            <mxPoint x="520" y="1320" as="targetPoint" />
          </mxGeometry>
        </mxCell>
        <mxCell id="n2rtLvzGuDE1svgdu1uu-78" value="Teach on this website" style="rounded=1;whiteSpace=wrap;html=1;fillColor=#bac8d3;strokeColor=#23445d;" vertex="1" parent="1">
          <mxGeometry x="638.75" y="1030" width="120" height="60" as="geometry" />
        </mxCell>
        <mxCell id="n2rtLvzGuDE1svgdu1uu-105" style="edgeStyle=orthogonalEdgeStyle;rounded=0;orthogonalLoop=1;jettySize=auto;html=1;" edge="1" parent="1" source="n2rtLvzGuDE1svgdu1uu-79">
          <mxGeometry relative="1" as="geometry">
            <mxPoint x="570" y="1320" as="targetPoint" />
          </mxGeometry>
        </mxCell>
        <mxCell id="n2rtLvzGuDE1svgdu1uu-79" value="Be a Teaching assistant" style="rounded=1;whiteSpace=wrap;html=1;fillColor=#d0cee2;strokeColor=#56517e;" vertex="1" parent="1">
          <mxGeometry x="640" y="1130" width="118.75" height="50" as="geometry" />
        </mxCell>
        <mxCell id="n2rtLvzGuDE1svgdu1uu-81" value="" style="rounded=1;whiteSpace=wrap;html=1;fillColor=#f9f7ed;strokeColor=#36393d;" vertex="1" parent="1">
          <mxGeometry x="900" y="920" width="220" height="320" as="geometry" />
        </mxCell>
        <mxCell id="n2rtLvzGuDE1svgdu1uu-87" style="edgeStyle=orthogonalEdgeStyle;rounded=0;orthogonalLoop=1;jettySize=auto;html=1;" edge="1" parent="1" source="n2rtLvzGuDE1svgdu1uu-82">
          <mxGeometry relative="1" as="geometry">
            <mxPoint x="1140" y="970" as="targetPoint" />
          </mxGeometry>
        </mxCell>
        <mxCell id="n2rtLvzGuDE1svgdu1uu-82" value="Success story 1" style="rounded=1;whiteSpace=wrap;html=1;fillColor=#fad7ac;strokeColor=#b46504;" vertex="1" parent="1">
          <mxGeometry x="940" y="940" width="100" height="35" as="geometry" />
        </mxCell>
        <mxCell id="n2rtLvzGuDE1svgdu1uu-83" value="Success story 1" style="rounded=1;whiteSpace=wrap;html=1;fillColor=#fad9d5;strokeColor=#ae4132;" vertex="1" parent="1">
          <mxGeometry x="940" y="1000" width="100" height="40" as="geometry" />
        </mxCell>
        <mxCell id="n2rtLvzGuDE1svgdu1uu-84" value="Success story 1" style="rounded=1;whiteSpace=wrap;html=1;fillColor=#b0e3e6;strokeColor=#0e8088;" vertex="1" parent="1">
          <mxGeometry x="940" y="1055" width="100" height="35" as="geometry" />
        </mxCell>
        <mxCell id="n2rtLvzGuDE1svgdu1uu-85" value="Success story 1" style="rounded=1;whiteSpace=wrap;html=1;fillColor=#d0cee2;strokeColor=#56517e;" vertex="1" parent="1">
          <mxGeometry x="940" y="1110" width="100" height="40" as="geometry" />
        </mxCell>
        <mxCell id="n2rtLvzGuDE1svgdu1uu-90" style="edgeStyle=orthogonalEdgeStyle;rounded=0;orthogonalLoop=1;jettySize=auto;html=1;" edge="1" parent="1" source="n2rtLvzGuDE1svgdu1uu-86">
          <mxGeometry relative="1" as="geometry">
            <mxPoint x="870" y="1250" as="targetPoint" />
          </mxGeometry>
        </mxCell>
        <mxCell id="n2rtLvzGuDE1svgdu1uu-86" value="More" style="rounded=1;whiteSpace=wrap;html=1;fillColor=#dae8fc;strokeColor=#6c8ebf;" vertex="1" parent="1">
          <mxGeometry x="990" y="1170" width="90" height="30" as="geometry" />
        </mxCell>
        <mxCell id="n2rtLvzGuDE1svgdu1uu-88" value="" style="rounded=1;whiteSpace=wrap;html=1;fillColor=#f9f7ed;strokeColor=#36393d;" vertex="1" parent="1">
          <mxGeometry x="1150" y="920" width="220" height="320" as="geometry" />
        </mxCell>
        <mxCell id="n2rtLvzGuDE1svgdu1uu-89" value="Success story" style="rounded=1;whiteSpace=wrap;html=1;fillColor=#dae8fc;strokeColor=#6c8ebf;" vertex="1" parent="1">
          <mxGeometry x="1165" y="1011.25" width="190" height="122.5" as="geometry" />
        </mxCell>
        <mxCell id="n2rtLvzGuDE1svgdu1uu-91" value="&lt;u&gt;More stories&lt;/u&gt;" style="text;html=1;align=center;verticalAlign=middle;resizable=0;points=[];autosize=1;strokeColor=none;" vertex="1" parent="1">
          <mxGeometry x="830" y="1260" width="80" height="20" as="geometry" />
        </mxCell>
        <mxCell id="n2rtLvzGuDE1svgdu1uu-99" style="edgeStyle=orthogonalEdgeStyle;rounded=0;orthogonalLoop=1;jettySize=auto;html=1;" edge="1" parent="1" source="n2rtLvzGuDE1svgdu1uu-93">
          <mxGeometry relative="1" as="geometry">
            <mxPoint x="690" y="1490" as="targetPoint" />
          </mxGeometry>
        </mxCell>
        <mxCell id="n2rtLvzGuDE1svgdu1uu-93" value="" style="rounded=1;whiteSpace=wrap;html=1;fillColor=#f9f7ed;strokeColor=#36393d;" vertex="1" parent="1">
          <mxGeometry x="435" y="1330" width="220" height="320" as="geometry" />
        </mxCell>
        <mxCell id="n2rtLvzGuDE1svgdu1uu-104" style="edgeStyle=orthogonalEdgeStyle;rounded=0;orthogonalLoop=1;jettySize=auto;html=1;entryX=0.5;entryY=0;entryDx=0;entryDy=0;" edge="1" parent="1" source="n2rtLvzGuDE1svgdu1uu-94" target="n2rtLvzGuDE1svgdu1uu-95">
          <mxGeometry relative="1" as="geometry" />
        </mxCell>
        <mxCell id="n2rtLvzGuDE1svgdu1uu-94" value="Plan your career" style="rounded=1;whiteSpace=wrap;html=1;gradientColor=#ffd966;fillColor=#fff2cc;strokeColor=#d6b656;" vertex="1" parent="1">
          <mxGeometry x="480" y="1390" width="120" height="60" as="geometry" />
        </mxCell>
        <mxCell id="n2rtLvzGuDE1svgdu1uu-103" style="edgeStyle=orthogonalEdgeStyle;rounded=0;orthogonalLoop=1;jettySize=auto;html=1;entryX=0.5;entryY=0;entryDx=0;entryDy=0;" edge="1" parent="1" source="n2rtLvzGuDE1svgdu1uu-95" target="n2rtLvzGuDE1svgdu1uu-97">
          <mxGeometry relative="1" as="geometry" />
        </mxCell>
        <mxCell id="n2rtLvzGuDE1svgdu1uu-95" value="Record your video" style="rounded=1;whiteSpace=wrap;html=1;gradientColor=#ea6b66;fillColor=#f8cecc;strokeColor=#b85450;" vertex="1" parent="1">
          <mxGeometry x="480" y="1470" width="120" height="60" as="geometry" />
        </mxCell>
        <mxCell id="n2rtLvzGuDE1svgdu1uu-97" value="Launch your course" style="rounded=1;whiteSpace=wrap;html=1;gradientColor=#d5739d;fillColor=#e6d0de;strokeColor=#996185;" vertex="1" parent="1">
          <mxGeometry x="480" y="1560" width="120" height="60" as="geometry" />
        </mxCell>
        <mxCell id="n2rtLvzGuDE1svgdu1uu-100" value="&lt;div&gt;If approved then content &lt;br&gt;&lt;/div&gt;&lt;div&gt;will be published&lt;br&gt;&lt;/div&gt;" style="text;html=1;align=center;verticalAlign=middle;resizable=0;points=[];autosize=1;strokeColor=none;" vertex="1" parent="1">
          <mxGeometry x="690" y="1480" width="140" height="30" as="geometry" />
        </mxCell>
        <mxCell id="n2rtLvzGuDE1svgdu1uu-101" value="Steps" style="rounded=1;whiteSpace=wrap;html=1;gradientColor=#ffa500;fillColor=#ffcd28;strokeColor=#d79b00;" vertex="1" parent="1">
          <mxGeometry x="480" y="1340" width="120" height="30" as="geometry" />
        </mxCell>
        <mxCell id="n2rtLvzGuDE1svgdu1uu-117" style="edgeStyle=orthogonalEdgeStyle;rounded=0;orthogonalLoop=1;jettySize=auto;html=1;" edge="1" parent="1" source="n2rtLvzGuDE1svgdu1uu-111">
          <mxGeometry relative="1" as="geometry">
            <mxPoint x="1230" y="715" as="targetPoint" />
          </mxGeometry>
        </mxCell>
        <mxCell id="n2rtLvzGuDE1svgdu1uu-111" value="" style="rounded=1;whiteSpace=wrap;html=1;fillColor=#f9f7ed;strokeColor=#36393d;" vertex="1" parent="1">
          <mxGeometry x="960" y="555" width="220" height="320" as="geometry" />
        </mxCell>
        <mxCell id="n2rtLvzGuDE1svgdu1uu-112" value="Research paper" style="rounded=1;whiteSpace=wrap;html=1;fillColor=#e3c800;strokeColor=#B09500;fontColor=#000000;" vertex="1" parent="1">
          <mxGeometry x="1000" y="570" width="120" height="40" as="geometry" />
        </mxCell>
        <mxCell id="n2rtLvzGuDE1svgdu1uu-113" value="Articles" style="rounded=1;whiteSpace=wrap;html=1;fillColor=#a0522d;strokeColor=#6D1F00;fontColor=#ffffff;" vertex="1" parent="1">
          <mxGeometry x="1000" y="700" width="120" height="40" as="geometry" />
        </mxCell>
        <mxCell id="n2rtLvzGuDE1svgdu1uu-114" value="Latest technologies" style="rounded=1;whiteSpace=wrap;html=1;fillColor=#e51400;strokeColor=#B20000;fontColor=#ffffff;" vertex="1" parent="1">
          <mxGeometry x="1000" y="770" width="120" height="40" as="geometry" />
        </mxCell>
        <mxCell id="n2rtLvzGuDE1svgdu1uu-115" value="Tech news" style="rounded=1;whiteSpace=wrap;html=1;fillColor=#76608a;strokeColor=#432D57;fontColor=#ffffff;" vertex="1" parent="1">
          <mxGeometry x="1000" y="640" width="120" height="40" as="geometry" />
        </mxCell>
        <mxCell id="n2rtLvzGuDE1svgdu1uu-118" value="Reroutes to a page with current requirement" style="text;html=1;align=center;verticalAlign=middle;resizable=0;points=[];autosize=1;strokeColor=none;" vertex="1" parent="1">
          <mxGeometry x="1240" y="705" width="250" height="20" as="geometry" />
        </mxCell>
        <mxCell id="n2rtLvzGuDE1svgdu1uu-122" value="Card credentials" style="rounded=1;whiteSpace=wrap;html=1;fillColor=#dae8fc;strokeColor=#6c8ebf;" vertex="1" parent="1">
          <mxGeometry x="1690" y="170" width="130" height="110" as="geometry" />
        </mxCell>
        <mxCell id="n2rtLvzGuDE1svgdu1uu-125" style="edgeStyle=orthogonalEdgeStyle;rounded=0;orthogonalLoop=1;jettySize=auto;html=1;" edge="1" parent="1" source="n2rtLvzGuDE1svgdu1uu-124">
          <mxGeometry relative="1" as="geometry">
            <mxPoint x="2010" y="350" as="targetPoint" />
          </mxGeometry>
        </mxCell>
        <mxCell id="n2rtLvzGuDE1svgdu1uu-124" value="BUY" style="rounded=1;whiteSpace=wrap;html=1;fillColor=#e1d5e7;strokeColor=#9673a6;" vertex="1" parent="1">
          <mxGeometry x="1730" y="320" width="100" height="45" as="geometry" />
        </mxCell>
        <mxCell id="n2rtLvzGuDE1svgdu1uu-126" value="" style="rounded=1;whiteSpace=wrap;html=1;fillColor=#f9f7ed;strokeColor=#36393d;" vertex="1" parent="1">
          <mxGeometry x="2015" y="100" width="220" height="330" as="geometry" />
        </mxCell>
        <mxCell id="n2rtLvzGuDE1svgdu1uu-128" value="&lt;div&gt;PAYMENT&lt;/div&gt;&lt;div&gt;SUCCESSFUL&lt;br&gt;&lt;/div&gt;" style="ellipse;whiteSpace=wrap;html=1;aspect=fixed;fillColor=#008a00;strokeColor=#005700;fontColor=#ffffff;" vertex="1" parent="1">
          <mxGeometry x="2060" y="145" width="130" height="130" as="geometry" />
        </mxCell>
        <mxCell id="n2rtLvzGuDE1svgdu1uu-132" value="" style="shape=image;imageAspect=0;aspect=fixed;verticalLabelPosition=bottom;verticalAlign=top;image=data:image/png,iVBORw0KGgoAAAANSUhEUgAAAOEAAADhCAMAAAAJbSJIAAAA/1BMVEX///+7Dxa+EBe5DhXBERi1DRTFEhmwDBKvCxLaGCC0DRTNFBzOFRzfGiLTFh7HExqpChC+AADFAACmAAC4AADdAACrAADNAADCAACpAADhAADWAAC1AACwAAD++fnJAAD67e376uv53+D21NXonJ7sv8DuyMnz2trhr7DDbG66WFr3yMnzr7HpXGDmQkf1vr/sfYDiDhniABHlNz3qaWzthYjkMDbiICjvl5nxsbPqiIvskZPmcXXiTlPgS0/ZABDVNjrZXmHdeHvNJSvXZmnRSk7gkpXLODzjoaLelZfKS07Zg4XFKzDFMjfHWlzepaa9Oz6wHCHHcXO7S07KgIFDNbHXAAAHiElEQVR4nO2cC1faShCALVKUyqN5CEEhbqAC1kertvXa6y2Kb2199v//lhusVghJdjbZMBnOfqenPT1HwnzM7s5MAGdmFAqFQqFQKBQKhUKhUCgUk4Ktb2ysO9hRJEdrc+mJrU/YkSSD/Xlpu/jE9tKmjR1NAqxv7xT/srM7fYoHS8Vhdr5gBySZ9eJOcZSlFnZMUvm6VPSy/Rk7KIk0dxfHBIvFb9hhyWPj5Qj1JHFqzpov4yv0D1Ni2NzzHjEvKdzCDk0OASt0UC7+wY5NCgdBK9StFgw7OAmw3YAVOhDcwI5OAq3toBVaLC5OQzX84FcEXzbhJnZ0EjgIEZyGc9TeChPco18Km3vBW9DdhPSH/PXFUEH6U0XYGeMK0r+F8TVckH4vsxkuSL4Q2lvBfUxxGgqhs9cLE6RfCFu9sEO0WCRfCNdDt+AUFMJ9niD1QhheBl3BfewIY/KdJ/gvdoQx+byYD2X5ADvCmHzhCPb+w44wJpvL4YLb32jXCftHL1yw2KNdJ+xdjmB+mXadYN+4grQHJocv+AE7xlg4Ra4g7TrRzPMEideJJqdKuIK060STl0DXkHSd4GeQeJ1oAQRJzxMQQdLzBESQdJ0ACPYOsYOMA0Aw36NcJyCCy03sKGMAKBO0221XsMSDdLvtdjJ8QcrHKCSDvR/YUcbAKfEF83nCx6iT5wuWljvYYUaHATJYqhI+RtlxD5BBwt2oDRHsHWGHGR37ECCYPyZ8yvwACJaqhIf60ypEcB07zOgcgQQJN2snIMET7DCj04cI5g+xw4zOd4hgqcqw44zMB5hgGzvOyOxXCwAInzKfQIIrdHuZNkiwtIAdZ2RaIMFCleyNJ6daAgmSnZicFVgG+9iBRoUtgDKok70vYx/qsBQy7EijcrqyAGGFbKk/qsIEr7EDjUoflkH9FDvQqPwLE6S7CS9ggnQ34SeoINVN2AIKFs6xI41Ic6UATCHDDjUarFAoQ1hYIdqO2sfQDFJtR891UAbLhTJ2pBE5WoEJlvXE30XrnhR0/fha8mfH+sAMlvWkb8yslnXr6Yn0U5nz9RlU0Eq6WzvT/553ln4m7bL7UMGyzqQ9qX8k1sizHUtaqm0rSGhMsCvnGYNg3pfa6st4364DzqCV9M3D8d2iS3hRHbBgWU/6jdBT35eVxbuoW+nBKVyVYRGG74ttWRexLnoK34TJNzNWzhfrPEYRPgm46DhlK/k364OCKVuR57VrsGAu+TXqvt5a4LOXow3dFwKCk2i4V0PisU4irKGwC3rRJvKBkvPAJLoRWMKFoyUgOIk16sKsXDaQnCXYqjphV/NgTerjCJ3QoDRNpFW1j+GCOYslpeSlHbJOB2tJoFU9FdmECfejw3S18Bdbg7aqJ+EXGl0cE73DfcGJzIKdCdcCglltsp9b48amHTHuRW6FBC8Tlxqlz1XUeK1qW0Qw93MiWsPwt5AW3qo2RQSzGsL3Ca+4Eea0kFaVZeF1whVEuT96zk+ClgtsVX+aAoLZybRrXuyfZoZHVjthvg++0biPHUK7nazaC3YmBwjOt1D3hQRzvybu9oxjZvnhZbWrsVb1gp/9kSvgfW3Z0QCKGdP0tKqrQoIZnGPmmQ5IMaONtKodMcEMzjHzQgsWbdZ8bVUZZG0PYca7yxWbNjAhmvbcqtq/xFKYRTtmXgBvKvOGDX7+SugYdR+G/5GLrpl5A8IcrLdrE/bDfx90g+03Mzj7gdFmzLszQcGMmYov+1yCw84KCr7xFhosRJcemMybtHwhrZ+QojnBezMcbhJRzKBXiiHu6rPyqafp9+iwTEa6YCoqxStN+Umsp6JSvLIqW7Geus9XnklWNNNSKV65kqpYR54p/LClGr7D1vGjLVGxPpk3C0W5rr+VxGyaiv0wvxqSBBtpKvbDOPVZKYb1dBX7YW7lJLGR4t80cyVjK9bXsDVCYDKS2GDYGmF04ys2UjLZB/EYe53W09evjeCu03exaKSwXxvlthFL8O0stgCfx1hbsZGemzOBOHHWaWr7tREuYqzTRjpbbi93kRUbd9ixw+hUohpW0tpye7mMmMRGeltuL/fRDptKiltuD63KXAQaaW65vTw0IhhWGHbYAtiNt+IpfMCOWohV8XVKKoUuN6LrtPIbO2RBmGgSKymfmsa5FVOsIH1ALw53lXk4c3PkUjho3ubghhRTODPzG57EuXvsYKMxD05ijcDg60e7BhUkMjWNswZcpzUag68PNuywqTxiBxqdLmidGlQGXz8eAeuUcgpnZpqAJNboDL5+XNbec6hQGnz9uJ8LF5w3UvbZIGHaBmeN0hp8/VgL34oGww4wNvbA8P28ux4H//z56+m/gz/zNWqDrx9dI2QX1hh2eDJ4DD5PjUl/ATYZnMAkztcIDr5+XAYpGiQHXz/u/RXniQ6+PrT8DQ2ig68fD36KxvSk0C2KvoZkB18/VscV6d678OdxTNHA/+6dVMaKokF68PXDWxQN2oOvH6NF0fiIHY98OsOGxvsp6ddG6BjGqyDDjiYR2JrxzDRMhf443bWPHx+6DDsOhUKhUCgUCoVCoVAoFApFqvgfDnWNLiZd14sAAAAASUVORK5CYII=;" vertex="1" parent="1">
          <mxGeometry x="2078" y="295" width="95" height="95" as="geometry" />
        </mxCell>
        <mxCell id="n2rtLvzGuDE1svgdu1uu-133" value="&lt;font style=&quot;font-size: 30px&quot;&gt;FLOW CHART FOR LMS&lt;/font&gt;" style="text;html=1;align=center;verticalAlign=middle;resizable=0;points=[];autosize=1;strokeColor=none;" vertex="1" parent="1">
          <mxGeometry x="535" y="30" width="350" height="20" as="geometry" />
        </mxCell>
        <mxCell id="n2rtLvzGuDE1svgdu1uu-134" value="API-1" style="text;html=1;align=center;verticalAlign=middle;resizable=0;points=[];autosize=1;strokeColor=none;" vertex="1" parent="1">
          <mxGeometry x="195" y="70" width="50" height="20" as="geometry" />
        </mxCell>
      </root>
    </mxGraphModel>
  </diagram>
  <diagram id="N5t4msJsc05awtExlT8g" name="Page-2">
    <mxGraphModel dx="1350" dy="748" grid="1" gridSize="10" guides="1" tooltips="1" connect="1" arrows="1" fold="1" page="1" pageScale="1" pageWidth="850" pageHeight="1100" math="0" shadow="0">
      <root>
        <mxCell id="dQVfELoNjYOoGzd9PWFm-0" />
        <mxCell id="dQVfELoNjYOoGzd9PWFm-1" parent="dQVfELoNjYOoGzd9PWFm-0" />
      </root>
    </mxGraphModel>
  </diagram>
</mxfile>
